# xmcd
#
# Track frame offsets:
#	150
#	12007
#	28477
#	43475
#	60537
#	76940
#	92285
#	113820
#	130217
#	142230
#	159182
#	175222
#	191625
#	208352
#	226695
#
# Disc length: 3275 seconds
#
# Revision: 1
# Processed by: cddbd v1.5.1PL2 Copyright (c) Steve Scherf et al.
# Submitted via: audiograbber 1.83.01
#
DISCID=ca0cc90f
DTITLE=Music Maestro Country Hits 90's Vol 23 - Mm6099
DYEAR=1900
DGENRE=Karaoke
TTITLE0=John Michael Montgomery - Sold (The Grundy County Auction Incident)
TTITLE1=Pam Tillis - In Between Dances
TTITLE2=Neal Mccoy - They're Playing Our Song
TTITLE3=Vince Gill - You Better Think Twice
TTITLE4=Clay Walker - My Heart Will Never Know
TTITLE5=Southern Grace - You Can Sleep While I Drive
TTITLE6=Little Texas - Southern Grace
TTITLE7=Tracy Byrd - Walking To Jerusalem
TTITLE8=Confederate Railroad - When And Where
TTITLE9=Victoria Shaw - Forgiveness
TTITLE10=George Strait - Lead On
TTITLE11=Lorrie Morgan - I Didn't Know My Own Strength
TTITLE12=David Ball - What Do You Want With His Love
TTITLE13=Forerunner - Cain's Blood
TTITLE14=Shania Twain - Whose Bed Have Your Boots Been Under
EXTD=
EXTT0=
EXTT1=
EXTT2=
EXTT3=
EXTT4=
EXTT5=
EXTT6=
EXTT7=
EXTT8=
EXTT9=
EXTT10=
EXTT11=
EXTT12=
EXTT13=
EXTT14=
PLAYORDER=
